<?xml version="1.0" encoding="UTF-8"?>
<svg width="434px" height="74px" viewBox="0 0 434 74" version="1.1" xmlns="http://www.w3.org/2000/svg" xmlns:xlink="http://www.w3.org/1999/xlink">
    <!-- Generator: Sketch 56.3 (81716) - https://sketch.com -->
    <title>RyderEcommerce_by_Whiplash_RGB</title>
    <desc>Created with Sketch.</desc>
    <g id="RyderEcommerce_by_Whiplash_RGB" stroke="none" stroke-width="1" fill="none" fill-rule="evenodd">
        <path d="M7.93,3.86 L3.78,3.86 L3.78,13.79 L7.98,13.79 C10.91,13.79 13.52,12.11 13.52,8.85 C13.52,5.59 10.91,3.86 7.93,3.86 L7.93,3.86 Z M17.44,30.31 L7.84,16.97 L3.78,16.97 L3.78,30.31 L0,30.31 L0,0.56 L8.58,0.56 C12.96,0.56 17.44,3.4 17.44,8.76 C17.499,12.25 15.232,15.354 11.89,16.36 L22.2,30.31 L17.44,30.31 Z" id="Fill-1" fill="#CE1126"></path>
        <path d="M39.21,16.6 L39.21,30.31 L35.44,30.31 L35.44,16.6 L24.07,0.6 L28.26,0.6 L34.47,9.32 C35.4,10.67 36.52,12.32 37.4,13.7 L37.5,13.7 C38.38,12.3 39.55,10.57 40.43,9.32 L46.64,0.6 L50.64,0.6 L39.21,16.6 Z" id="Fill-3" fill="#CE1126"></path>
        <path d="M67.33,3.86 L63.33,3.86 L63.33,27.08 L67.33,27.08 C74.6,27.08 80.33,23.21 80.33,15.47 C80.33,7.73 74.6,3.86 67.33,3.86 M67.98,30.31 L59.5,30.31 L59.5,0.56 L67.98,0.56 C76.61,0.56 84.26,5.92 84.26,15.43 C84.26,24.94 76.61,30.31 67.98,30.31" id="Fill-5" fill="#CE1126"></path>
        <polygon id="Fill-7" fill="#CE1126" points="93.95 30.31 93.95 0.56 109.71 0.56 109.71 3.86 97.77 3.86 97.77 13.7 107.71 13.7 107.71 17.01 97.77 17.01 97.77 27.01 111.44 27.01 111.44 30.32"></polygon>
        <path d="M127.38,3.86 L123.23,3.86 L123.23,13.79 L127.44,13.79 C130.38,13.79 132.99,12.11 132.99,8.85 C132.99,5.59 130.37,3.86 127.38,3.86 L127.38,3.86 Z M136.89,30.31 L127.29,16.97 L123.23,16.97 L123.23,30.31 L119.44,30.31 L119.44,0.56 L128.02,0.56 C132.41,0.56 136.88,3.4 136.88,8.76 C136.94,12.247 134.678,15.35 131.34,16.36 L141.64,30.31 L136.89,30.31 Z" id="Fill-9" fill="#CE1126"></path>
        <polygon id="Fill-11" fill="#808184" points="148.08 30.31 148.08 0.56 163.84 0.56 163.84 3.86 151.91 3.86 151.91 13.7 161.84 13.7 161.84 17.01 151.91 17.01 151.91 27.01 165.52 27.01 165.52 30.32"></polygon>
        <path d="M196.01,5.5 C193.699,4.17 191.076,3.479 188.41,3.5 C182.12,3.5 176.06,7.84 176.06,15.5 C176.06,23.16 182.06,27.5 188.41,27.5 C191.124,27.61 193.816,26.981 196.2,25.68 L195.83,29.09 C194.06,30.09 191.72,30.63 188.04,30.63 C180.3,30.63 172.37,25.08 172.37,15.47 C172.37,5.86 180.37,0.32 187.99,0.32 C191.014,0.227 194.013,0.897 196.71,2.27 L196.01,5.5 Z" id="Fill-13" fill="#808184"></path>
        <path d="M219.93,3.44 C213.249,3.274 207.699,8.556 207.534,15.236 C207.368,21.917 212.649,27.467 219.33,27.633 C226.011,27.798 231.561,22.517 231.726,15.836 C231.729,15.731 231.73,15.625 231.73,15.52 C231.951,9.051 226.886,3.628 220.417,3.407 C220.255,3.401 220.092,3.399 219.93,3.4 L219.93,3.44 Z M219.93,30.86 C211.87,30.86 204.26,24.86 204.26,15.42 C204.26,5.98 211.87,0.04 219.93,0.04 C227.99,0.04 235.6,6.04 235.6,15.42 C235.6,24.8 228,30.86 219.93,30.86 L219.93,30.86 Z" id="Fill-15" fill="#808184"></path>
        <path d="M274.16,30.31 L272.95,15.86 C272.76,13.62 272.57,10.86 272.48,8.58 L272.44,8.58 C271.44,10.87 269.97,13.85 268.89,16 L261.71,30.45 L260.27,30.45 L252.99,16 C251.92,13.9 250.61,11.05 249.54,8.68 L249.44,8.68 C249.35,11.1 249.16,13.85 248.97,15.86 L247.76,30.27 L244.36,30.27 L246.83,0.52 L249.25,0.52 L257.25,16.52 C258.47,18.94 260,21.98 261.08,24.52 L261.17,24.52 C262.17,22.01 263.59,19.11 264.9,16.52 L272.9,0.58 L275.32,0.58 L277.84,30.33 L274.16,30.31 Z" id="Fill-17" fill="#808184"></path>
        <path d="M316.73,30.31 L315.52,15.86 C315.33,13.62 315.14,10.86 315.05,8.58 L314.96,8.58 C313.96,10.87 312.48,13.85 311.41,16 L304.23,30.45 L302.79,30.45 L295.51,16 C294.44,13.9 293.13,11.05 292.06,8.68 L291.97,8.68 C291.87,11.1 291.69,13.85 291.5,15.86 L290.29,30.27 L286.88,30.27 L289.36,0.52 L291.78,0.52 L299.78,16.52 C300.99,18.94 302.53,21.98 303.61,24.52 L303.7,24.52 C304.7,22.01 306.12,19.11 307.43,16.52 L315.43,0.58 L317.86,0.58 L320.38,30.33 L316.73,30.31 Z" id="Fill-19" fill="#808184"></path>
        <polygon id="Fill-21" fill="#808184" points="330.44 30.31 330.44 0.56 346.2 0.56 346.2 3.86 334.21 3.86 334.21 13.7 344.14 13.7 344.14 17.01 334.21 17.01 334.21 27.01 347.83 27.01 347.83 30.32"></polygon>
        <path d="M363.82,3.86 L359.67,3.86 L359.67,13.79 L363.86,13.79 C366.8,13.79 369.41,12.11 369.41,8.85 C369.41,5.59 366.8,3.86 363.82,3.86 L363.82,3.86 Z M373.33,30.31 L363.72,16.97 L359.72,16.97 L359.72,30.31 L355.94,30.31 L355.94,0.56 L364.44,0.56 C368.82,0.56 373.3,3.4 373.3,8.76 C373.355,12.249 371.09,15.351 367.75,16.36 L378.06,30.31 L373.33,30.31 Z" id="Fill-23" fill="#808184"></path>
        <path d="M405.73,5.5 C403.419,4.17 400.796,3.479 398.13,3.5 C391.84,3.5 385.78,7.84 385.78,15.5 C385.78,23.16 391.78,27.5 398.13,27.5 C400.844,27.61 403.536,26.981 405.92,25.68 L405.55,29.09 C403.78,30.09 401.44,30.63 397.76,30.63 C390.02,30.63 382.09,25.08 382.09,15.47 C382.09,5.86 390.09,0.32 397.71,0.32 C400.734,0.227 403.733,0.897 406.43,2.27 L405.73,5.5 Z" id="Fill-25" fill="#808184"></path>
        <polygon id="Fill-27" fill="#808184" points="416.13 30.31 416.13 0.56 431.89 0.56 431.89 3.86 419.95 3.86 419.95 13.7 429.89 13.7 429.89 17.01 419.95 17.01 419.95 27.01 433.57 27.01 433.57 30.32"></polygon>
        <path d="M418.54,68.82 L423.18,68.82 L423.18,59.42 C423.18,57.16 424.31,55.99 426.08,55.99 C427.85,55.99 428.9,57.16 428.9,59.42 L428.9,68.86 L433.54,68.86 L433.54,57.93 C433.54,54.06 431.54,51.68 427.98,51.68 C426.025,51.705 424.217,52.722 423.18,54.38 L423.18,45.86 L418.54,45.86 L418.54,68.82 Z M410.58,69.11 C414.13,69.11 416.85,67.41 416.85,63.67 L416.85,63.61 C416.85,60.53 414.19,59.4 411.9,58.61 C410.12,57.98 408.57,57.55 408.57,56.61 L408.57,56.55 C408.57,55.89 409.15,55.39 410.28,55.39 C411.865,55.532 413.389,56.072 414.71,56.96 L416.48,53.66 C414.68,52.421 412.554,51.743 410.37,51.71 C407.07,51.71 404.37,53.63 404.37,57.05 L404.37,57.11 C404.37,60.38 406.97,61.48 409.26,62.18 C411.06,62.74 412.65,63.09 412.65,64.12 L412.65,64.19 C412.65,64.94 412.04,65.44 410.65,65.44 C408.764,65.325 406.961,64.626 405.49,63.44 L403.49,66.59 C405.468,68.205 407.936,69.101 410.49,69.13 L410.58,69.11 Z M394.38,65.82 C392.88,65.82 391.84,65.07 391.84,63.82 L391.84,63.76 C391.84,62.25 393.06,61.43 395.05,61.43 C396.084,61.416 397.109,61.631 398.05,62.06 L398.05,62.86 C398.05,64.59 396.59,65.81 394.42,65.81 L394.38,65.82 Z M393,69.17 C394.907,69.262 396.75,68.473 398,67.03 L398,68.86 L402.44,68.86 L402.44,59.06 C402.578,57.107 401.942,55.178 400.67,53.69 C399.51,52.49 397.67,51.8 395.14,51.8 C392.944,51.754 390.768,52.216 388.78,53.15 L389.94,56.8 C391.363,56.193 392.893,55.874 394.44,55.86 C396.76,55.86 397.95,56.96 397.95,58.94 L397.95,59.22 C396.669,58.75 395.314,58.517 393.95,58.53 C390.07,58.53 387.35,60.23 387.35,63.9 L387.35,63.97 C387.35,67.3 389.88,69.12 392.97,69.12 L393,69.17 Z M381,68.86 L385.64,68.86 L385.64,45.86 L381,45.86 L381,68.86 Z M370.35,65.09 C368.18,65.09 366.35,63.23 366.35,60.43 L366.35,60.37 C366.35,57.58 368.16,55.72 370.35,55.72 C372.54,55.72 374.35,57.58 374.35,60.37 L374.35,60.43 C374.35,63.26 372.52,65.09 370.35,65.09 L370.35,65.09 Z M361.79,73.86 L366.44,73.86 L366.44,66.63 C367.64,68.24 369.542,69.174 371.55,69.14 C375.43,69.14 379,66.06 379,60.43 L379,60.37 C379,54.75 375.37,51.67 371.55,51.67 C369.491,51.643 367.562,52.673 366.44,54.4 L366.44,51.98 L361.8,51.98 L361.79,73.86 Z M354.44,68.86 L359.08,68.86 L359.08,51.99 L354.44,51.99 L354.44,68.86 Z M336.77,68.84 L341.44,68.84 L341.44,59.44 C341.44,57.18 342.57,56.01 344.35,56.01 C346.13,56.01 347.16,57.18 347.16,59.44 L347.16,68.86 L351.8,68.86 L351.8,57.93 C351.8,54.06 349.8,51.68 346.24,51.68 C344.285,51.705 342.477,52.722 341.44,54.38 L341.44,45.86 L336.8,45.86 L336.77,68.84 Z M315.77,68.96 L319.93,68.96 L323.14,58.62 L326.29,68.96 L330.44,68.96 L335.55,51.96 L330.93,51.96 L328.24,62.21 L325.12,51.9 L321.12,51.9 L318.03,62.18 L315.44,51.99 L310.73,51.99 L315.77,68.96 Z" id="Fill-29" fill="#808184"></path>
        <path d="M356.74,50.25 C358.33,50.294 359.655,49.041 359.699,47.451 C359.743,45.861 358.49,44.536 356.9,44.492 C355.31,44.448 353.985,45.701 353.941,47.291 C353.94,47.317 353.94,47.344 353.94,47.37 C353.918,48.938 355.171,50.228 356.739,50.25 L356.74,50.25 Z" id="Fill-31" fill="#CE1126"></path>
        <path d="M276.75,69.21 C280.68,69.21 284.31,66.11 284.31,60.46 L284.31,60.4 C284.31,54.74 280.62,51.64 276.75,51.64 C274.666,51.608 272.711,52.646 271.57,54.39 L271.57,45.86 L266.86,45.86 L266.86,68.86 L271.57,68.86 L271.57,66.64 C272.792,68.264 274.718,69.204 276.75,69.17 L276.75,69.21 Z M275.54,65.13 C273.34,65.13 271.54,63.27 271.54,60.46 L271.54,60.4 C271.54,57.58 273.37,55.72 275.54,55.72 C277.71,55.72 279.6,57.58 279.6,60.4 L279.6,60.46 C279.6,63.3 277.74,65.13 275.54,65.13 L275.54,65.13 Z M293.21,63.49 L289.44,51.96 L284.44,51.96 L290.95,68.96 C290.731,69.668 290.048,70.126 289.31,70.06 C288.598,70.012 287.91,69.785 287.31,69.4 L285.71,72.86 C286.963,73.64 288.414,74.046 289.89,74.03 C292.71,74.03 294.08,72.73 295.35,69.29 L301.73,51.94 L296.84,51.94 L293.21,63.49 Z" id="Fill-33" fill="#808184"></path>
    </g>
</svg>